<svg width="16" height="16" viewBox="0 0 16 16" fill="none" xmlns="http://www.w3.org/2000/svg">
<rect width="16" height="16" fill="#F5F5F5"/>
<rect x="8" y="5" width="4" height="4" rx="0.5" fill="#9E7777"/>
<rect x="9" y="5" width="4" height="4" rx="1" fill="#9E7777"/>
<path d="M4.65341 11.8835C4.44318 11.8835 4.26278 11.8082 4.11222 11.6577C3.96165 11.5071 3.88636 11.3267 3.88636 11.1165C3.88636 10.9062 3.96165 10.7259 4.11222 10.5753C4.26278 10.4247 4.44318 10.3494 4.65341 10.3494C4.86364 10.3494 5.04403 10.4247 5.1946 10.5753C5.34517 10.7259 5.42045 10.9062 5.42045 11.1165C5.42045 11.2557 5.38494 11.3835 5.31392 11.5C5.24574 11.6165 5.15341 11.7102 5.03693 11.7812C4.9233 11.8494 4.79545 11.8835 4.65341 11.8835ZM4.65341 7.46875C4.44318 7.46875 4.26278 7.39347 4.11222 7.2429C3.96165 7.09233 3.88636 6.91193 3.88636 6.7017C3.88636 6.49148 3.96165 6.31108 4.11222 6.16051C4.26278 6.00994 4.44318 5.93466 4.65341 5.93466C4.86364 5.93466 5.04403 6.00994 5.1946 6.16051C5.34517 6.31108 5.42045 6.49148 5.42045 6.7017C5.42045 6.84091 5.38494 6.96875 5.31392 7.08523C5.24574 7.2017 5.15341 7.29545 5.03693 7.36648C4.9233 7.43466 4.79545 7.46875 4.65341 7.46875ZM7.36151 13V4.27273H10.3104C10.995 4.27273 11.5547 4.39631 11.9893 4.64347C12.4268 4.88778 12.7507 5.21875 12.9609 5.63636C13.1712 6.05398 13.2763 6.51989 13.2763 7.03409C13.2763 7.5483 13.1712 8.01562 12.9609 8.43608C12.7536 8.85653 12.4325 9.19176 11.9979 9.44176C11.5632 9.68892 11.0064 9.8125 10.3274 9.8125H8.21378V8.875H10.2933C10.7621 8.875 11.1385 8.79403 11.4226 8.6321C11.7067 8.47017 11.9126 8.25142 12.0405 7.97585C12.1712 7.69744 12.2365 7.38352 12.2365 7.03409C12.2365 6.68466 12.1712 6.37216 12.0405 6.09659C11.9126 5.82102 11.7053 5.60511 11.4183 5.44886C11.1314 5.28977 10.7507 5.21023 10.2763 5.21023H8.41832V13H7.36151Z" fill="black"/>
</svg>
